<?xml version="1.0" standalone="no"?>
<!DOCTYPE svg PUBLIC "-//W3C//DTD SVG 20010904//EN"
 "http://www.w3.org/TR/2001/REC-SVG-20010904/DTD/svg10.dtd">
<svg version="1.0" xmlns="http://www.w3.org/2000/svg"
 width="74.000000pt" height="74.000000pt" viewBox="0 0 74.000000 74.000000"
 preserveAspectRatio="xMidYMid meet">
<metadata>
Created by potrace 1.11, written by Peter Selinger 2001-2013
</metadata>
<g transform="translate(0.000000,74.000000) scale(0.100000,-0.100000)"
fill="#000000" stroke="none">
<path d="M390 715 c0 -8 -8 -15 -17 -15 -14 0 -15 -2 -4 -9 7 -5 11 -13 7 -19
-3 -5 5 -9 18 -9 31 0 38 26 14 50 -15 14 -18 14 -18 2z"/>
<path d="M284 707 c-14 -16 -4 -42 16 -42 21 0 30 27 14 42 -15 16 -16 16 -30
0z"/>
<path d="M194 676 c-15 -16 -3 -40 21 -44 11 -2 17 -1 13 4 -4 4 -3 13 3 21 9
10 8 13 -4 13 -8 0 -17 4 -19 9 -1 5 -8 4 -14 -3z"/>
<path d="M474 676 c-14 -16 -3 -41 19 -42 10 -1 16 1 13 4 -3 3 -1 11 5 19 9
10 8 13 -4 13 -8 0 -17 4 -19 9 -1 5 -8 4 -14 -3z"/>
<path d="M553 605 c-12 -13 -5 -29 14 -32 16 -3 23 20 9 33 -9 8 -15 7 -23 -1z"/>
<path d="M119 608 c-6 -28 -4 -34 11 -34 19 0 21 27 2 34 -7 2 -12 2 -13 0z"/>
<path d="M233 538 c-85 -42 -103 -55 -103 -73 0 -13 7 -26 16 -29 23 -9 24 -8
24 14 0 15 22 31 90 65 l90 45 128 -54 c119 -51 127 -56 124 -80 -4 -32 2 -32
52 -1 l39 24 -34 14 c-19 8 -93 40 -166 71 -72 31 -138 56 -145 55 -7 0 -59
-23 -115 -51z"/>
<path d="M36 449 c-21 -11 -34 -24 -30 -29 5 -5 85 -40 178 -79 l168 -70 79
39 c43 22 83 40 89 40 7 0 10 -23 8 -62 l-3 -62 -50 -25 c-71 -37 -168 -36
-247 1 -56 26 -58 28 -58 66 0 26 -5 42 -15 46 -12 4 -15 -5 -15 -50 l0 -55
68 -32 c58 -28 78 -32 148 -32 70 0 88 4 140 30 l59 31 3 103 c1 56 -1 101 -5
99 -4 -2 -51 -25 -104 -52 l-97 -49 -143 58 c-78 33 -137 61 -131 63 13 4 17
42 5 42 -5 -1 -25 -10 -47 -21z"/>
<path d="M12 210 c-7 -11 -12 -39 -12 -62 l0 -43 93 0 c79 0 100 -4 150 -27
62 -29 79 -47 21 -23 -54 22 -152 35 -208 27 -86 -12 -65 -28 46 -35 57 -4
132 -14 167 -22 35 -8 66 -13 68 -11 3 2 -12 22 -31 44 -48 53 -121 83 -218
90 -43 2 -78 8 -78 13 0 4 5 20 10 35 13 33 9 40 -8 14z"/>
<path d="M665 203 c24 -56 22 -58 -62 -59 -95 -1 -162 -27 -218 -84 -21 -22
-37 -42 -34 -44 2 -2 33 3 69 11 40 10 114 16 191 17 70 1 125 4 123 7 -8 14
-102 33 -160 32 -59 0 -155 -25 -182 -46 -7 -5 -15 -7 -18 -4 -9 9 78 55 129
68 31 7 84 10 143 6 52 -3 94 -3 94 -1 0 7 -73 114 -77 114 -3 0 -2 -8 2 -17z"/>
</g>
</svg>
